<svg xmlns="http://www.w3.org/2000/svg" version="1.1" xmlns:xlink="http://www.w3.org/1999/xlink" xmlns:svgjs="http://svgjs.dev/svgjs" width="2000" height="2250" viewBox="0 0 2000 2250"><g transform="matrix(1,0,0,1,0,0)"><svg viewBox="0 0 320 360" data-background-color="#ffffff" preserveAspectRatio="xMidYMid meet" height="2250" width="2000" xmlns="http://www.w3.org/2000/svg" xmlns:xlink="http://www.w3.org/1999/xlink"><g id="tight-bounds" transform="matrix(1,0,0,1,0,0)"><svg viewBox="0 0 320 360" height="360" width="320"><g><svg></svg></g><g><svg viewBox="0 0 320 360" height="360" width="320"><g><path d="M320 187.111c0-45.764-20.238-86.866-52.203-114.908-28.043-31.964-69.145-52.203-114.908-52.203-84.302 0-152.889 68.587-152.889 152.889 0 45.753 20.231 86.848 52.185 114.891 28.043 31.975 69.152 52.22 114.926 52.22 0.299 0 0.59-0.021 0.889-0.021 0.299 0 0.59 0.021 0.889 0.021 83.456 0 151.111-67.655 151.111-151.111 0-0.299-0.021-0.59-0.021-0.889 0-0.299 0.021-0.59 0.021-0.889zM59.833 263.097c-15.093-21.255-24.071-47.143-24.256-75.097 0.48-72.928 59.492-131.943 132.423-132.423 27.954 0.185 53.845 9.163 75.097 24.256 24.366 23.627 39.57 56.64 39.57 93.056 0 71.559-58.219 129.778-129.778 129.778-36.416 0-69.429-15.204-93.056-39.57zM3.556 172.889c0-82.343 66.99-149.333 149.333-149.333 35.051 0 67.292 12.167 92.8 32.462-22.98-13.824-49.863-21.796-78.578-21.796-84.302 0-152.889 68.587-152.889 152.889 0 28.708 7.968 55.584 21.785 78.56-20.288-25.5-32.452-57.739-32.451-92.782zM167.111 318.667c-35.84 0-68.363-14.418-92.107-37.743 21.952 15.89 48.864 25.298 77.885 25.298 73.522 0 133.333-59.812 133.333-133.333 0-29.02-9.408-55.932-25.298-77.885 23.324 23.744 37.742 56.267 37.743 92.107 0 72.54-59.015 131.556-131.556 131.556z" fill="#000000" fill-rule="nonzero" stroke="none" stroke-width="1" stroke-linecap="butt" stroke-linejoin="miter" stroke-miterlimit="10" stroke-dasharray="" stroke-dashoffset="0" font-family="none" font-weight="none" font-size="none" text-anchor="none" style="mix-blend-mode: normal" data-fill-palette-color="tertiary"></path></g><g transform="matrix(1,0,0,1,64,161.08639672578445)"><svg viewBox="0 0 192 37.82720654843111" height="37.82720654843111" width="192"><g><svg viewBox="0 0 192 37.82720654843111" height="37.82720654843111" width="192"><g><svg viewBox="0 0 192 37.82720654843111" height="37.82720654843111" width="192"><g id="textblocktransform"><svg viewBox="0 0 192 37.82720654843111" height="37.82720654843111" width="192" id="textblock"><g><svg viewBox="0 0 192 16.916780354706685" height="16.916780354706685" width="192"><g transform="matrix(1,0,0,1,0,0)"><svg width="192" viewBox="3.85 -38 439.77 38.75" height="16.916780354706685" data-palette-color="#000000"><path d="M3.85 0L3.85-36.75 19.95-36.75 19.95-31.85 9.4-31.85 9.4-21.7 17.9-21.7 17.9-16.7 9.4-16.7 9.4-4.95 21.6-4.95 21.6 0 3.85 0ZM39.55 0L22.55-36.75 28.9-36.75 39.9-11.5 50.95-36.75 57.25-36.75 40.3 0 39.55 0ZM60.3 0L60.3-36.75 76.4-36.75 76.4-31.85 65.85-31.85 65.85-21.7 74.35-21.7 74.35-16.7 65.85-16.7 65.85-4.95 78.05-4.95 78.05 0 60.3 0ZM110.64 0L89.14-23.8 89.29-19.8 89.29 0 83.69 0 83.69-36.8 84.39-36.8 105.99-12.7 105.79-16.9 105.79-36.75 111.39-36.75 111.39 0 110.64 0ZM126.19 0L126.19-31.85 116.79-31.85 116.79-36.75 141.24-36.75 141.24-31.85 131.74-31.85 131.74 0 126.19 0ZM146.64 0L146.64-36.75 154.74-36.75Q161.59-36.75 164.76-33.83 167.94-30.9 167.94-25.8L167.94-25.8Q167.94-19.9 164.49-16.75 161.04-13.6 154.24-13.6L154.24-13.6 152.29-13.6 152.29 0 146.64 0ZM152.29-18.55L154.39-18.55Q158.79-18.55 160.54-20.5 162.29-22.45 162.29-25.2L162.29-25.2Q162.29-28.15 160.59-30 158.89-31.85 154.89-31.85L154.89-31.85 152.29-31.85 152.29-18.55ZM173.14 0L173.14-36.75 178.79-36.75 178.79-5 189.34-5 189.34 0 173.14 0ZM207.63-36.8L208.18-36.8 225.88 0 219.43 0 216.28-7.2 199.43-7.2 196.28 0 190.03 0 207.63-36.8ZM207.88-26.15L205.68-21.15 201.68-12.25 214.08-12.25 210.13-21.1 207.98-26.15 207.88-26.15ZM255.93 0L234.43-23.8 234.58-19.8 234.58 0 228.98 0 228.98-36.8 229.68-36.8 251.28-12.7 251.08-16.9 251.08-36.75 256.68-36.75 256.68 0 255.93 0ZM291.43 0L269.93-23.8 270.08-19.8 270.08 0 264.48 0 264.48-36.8 265.18-36.8 286.78-12.7 286.58-16.9 286.58-36.75 292.18-36.75 292.18 0 291.43 0ZM299.93 0L299.93-36.75 316.03-36.75 316.03-31.85 305.48-31.85 305.48-21.7 313.98-21.7 313.98-16.7 305.48-16.7 305.48-4.95 317.68-4.95 317.68 0 299.93 0ZM348.12 0L341.67 0 334.27-13.9Q331.97-13.8 330.17-13.8L330.17-13.8 328.77-13.8 328.77 0 323.32 0 323.32-36.75 331.67-36.75Q338.02-36.75 342.12-34.13 346.22-31.5 346.22-25.6L346.22-25.6Q346.22-21.9 344.5-19.23 342.77-16.55 339.37-15.1L339.37-15.1 348.12 0ZM328.77-18.35L332.32-18.35Q337.22-18.35 339.05-20.48 340.87-22.6 340.87-25.55L340.87-25.55Q340.87-32.1 332.12-32.1L332.12-32.1 328.77-32.1 328.77-18.35ZM363.77 0.75Q360.57 0.75 357.35-0.18 354.12-1.1 352.67-2.55L352.67-2.55 355.02-7.3Q356.52-6.1 358.82-5.23 361.12-4.35 363.52-4.35L363.52-4.35Q372.07-4.35 372.07-11.3L372.07-11.3Q372.07-14.25 369.75-16.05 367.42-17.85 363.47-17.85L363.47-17.85Q360.72-17.85 358.82-17.55L358.82-17.55 368.02-31.85 354.22-31.85 354.22-36.75 377.97-36.75 367.57-21.9Q370.72-21.8 373.15-20.4 375.57-19 376.87-16.73 378.17-14.45 378.17-11.7L378.17-11.7Q378.17-8.1 376.47-5.28 374.77-2.45 371.52-0.85 368.27 0.75 363.77 0.75L363.77 0.75ZM397.77 0.75Q394.37 0.75 391.54-0.73 388.72-2.2 387.09-4.98 385.47-7.75 385.47-11.45L385.47-11.45Q385.47-14.05 386.27-16.57 387.07-19.1 389.67-23.85 392.27-28.6 397.97-38L397.97-38 402.77-35.2Q397.87-27.8 395.02-22.8L395.02-22.8Q394.82-22.45 394.62-22.1 394.42-21.75 394.27-21.6L394.27-21.6Q395.07-22.35 396.42-22.8 397.77-23.25 399.52-23.25L399.52-23.25Q402.82-23.25 405.37-21.68 407.92-20.1 409.29-17.48 410.67-14.85 410.67-11.8L410.67-11.8Q410.67-7.9 409.02-5.05 407.37-2.2 404.44-0.73 401.52 0.75 397.77 0.75L397.77 0.75ZM398.12-4.15Q401.27-4.15 403.09-6.15 404.92-8.15 404.92-11.3L404.92-11.3Q404.92-14.6 403.04-16.53 401.17-18.45 398.27-18.45L398.27-18.45Q395.07-18.45 393.14-16.5 391.22-14.55 391.22-11.2L391.22-11.2Q391.22-8.15 393.19-6.15 395.17-4.15 398.12-4.15L398.12-4.15ZM430.27 0.75Q423.37 0.75 420.12-4.55 416.87-9.85 416.87-18.35L416.87-18.35Q416.87-27.1 420.02-32.23 423.17-37.35 430.27-37.35L430.27-37.35Q443.62-37.35 443.62-18.35L443.62-18.35Q443.62-9.7 440.37-4.48 437.12 0.75 430.27 0.75L430.27 0.75ZM430.27-4.35Q434.37-4.35 435.94-8.28 437.52-12.2 437.52-18.35L437.52-18.35Q437.52-24.8 435.97-28.55 434.42-32.3 430.27-32.3L430.27-32.3Q426.12-32.3 424.54-28.55 422.97-24.8 422.97-18.35L422.97-18.35Q422.97-4.35 430.27-4.35L430.27-4.35Z" opacity="1" transform="matrix(1,0,0,1,0,0)" fill="#000000" class="wordmark-text-0" data-fill-palette-color="primary" id="text-0"></path></svg></g></svg></g><g transform="matrix(1,0,0,1,0,20.91042619372442)"><svg viewBox="0 0 192 16.916780354706685" height="16.916780354706685" width="192"><g transform="matrix(1,0,0,1,0,0)"><svg width="192" viewBox="-1.85 -24.25 282.61 24.9" height="16.916780354706685" data-palette-color="#445eca"><path d="M23.9-0.6L23.9-0.6Q20.5-0.6 20.5-3.75L20.5-3.75Q20.5-5.55 22.1-8.68 23.7-11.8 25.45-13.95L25.45-13.95Q22.35-12.45 18.3-8.53 14.25-4.6 12.65-0.3L12.65-0.3Q12.4 0.1 11.8 0.1L11.8 0.1Q10.6 0.1 10.6-1.25L10.6-1.25Q11.1-4 12.85-7.55L12.85-7.55Q13.4-8.7 16.1-14.25L16.1-14.25Q12.2-11.7 9.47-8.78 6.75-5.85 4.42-2.9 2.1 0.05 1.8 0.05L1.8 0.05Q1.15 0.05 0.68-0.55 0.2-1.15 0.2-1.75L0.2-1.75Q0.2-2.65 2.8-8.35L2.8-8.35-0.2-5.2Q-1.3-4.1-1.58-4.1-1.85-4.1-1.85-4.42-1.85-4.75-1.45-5.15L-1.45-5.15Q0.4-7 1.85-8.85 3.3-10.7 6.65-15.45L6.65-15.45Q7.2-16.2 8.2-16.2 9.2-16.2 9.2-15.25L9.2-15.25Q9.2-14.9 6.55-10.38 3.9-5.85 3.6-4.7L3.6-4.7Q5.65-6.95 9.75-10.75L9.75-10.75Q15.9-16.45 17.85-16.45L17.85-16.45Q18.45-16.45 18.95-16.1 19.45-15.75 19.45-15.33 19.45-14.9 17.5-11.55L17.5-11.55Q15.6-8.1 15.4-7.45L15.4-7.45Q20.95-12.1 20.95-12.15L20.95-12.15Q25.65-15.8 27.7-15.8L27.7-15.8Q28.3-15.8 28.83-15.43 29.35-15.05 29.35-14.55L29.35-14.55Q29.35-14.45 26.1-10.33 22.85-6.2 22.45-3.55L22.45-3.55Q22.35-2.65 22.8-2.2 23.25-1.75 24.43-1.75 25.6-1.75 27.88-3.38 30.15-5 32.5-7.75L32.5-7.75Q33.4-8.75 33.73-8.75 34.05-8.75 34.05-8.5L34.05-8.5Q34.05-8.15 33.6-7.7L33.6-7.7Q31.15-4.75 28.33-2.68 25.5-0.6 23.9-0.6ZM47.92-10.6L47.92-10.6Q47.92-8.85 44.57-4.75L44.57-4.75Q40.62 0.1 37.82 0.1L37.82 0.1 37.02 0.1Q35.72 0.1 34.97-1.25L34.97-1.25Q34.37-2.2 34.37-3.35L34.37-3.35Q34.37-6.35 38.74-11.78 43.12-17.2 45.82-17.2L45.82-17.2Q48.37-17.2 48.37-14.5L48.37-14.5Q48.37-13.8 48.12-12.7L48.12-12.7Q48.17-12.55 49.07-12.55 49.97-12.55 51.82-13.5L51.82-13.5Q51.77-12.65 47.87-11.05L47.87-11.05Q47.92-10.85 47.92-10.6ZM44.67-13.2L44.67-13.2Q42.97-13.2 39.84-9.2 36.72-5.2 36.72-3.3 36.72-1.4 37.92-1.4L37.92-1.4Q40.07-1.4 43.37-5.3 46.67-9.2 46.67-10.9L46.67-10.9Q45.87-11.35 44.67-13.2ZM76.14-0.6L76.14-0.6Q72.74-0.6 72.74-3.75L72.74-3.75Q72.74-5.55 74.34-8.68 75.94-11.8 77.69-13.95L77.69-13.95Q74.59-12.45 70.54-8.53 66.49-4.6 64.89-0.3L64.89-0.3Q64.64 0.1 64.04 0.1L64.04 0.1Q62.84 0.1 62.84-1.25L62.84-1.25Q63.34-4 65.09-7.55L65.09-7.55Q65.64-8.7 68.34-14.25L68.34-14.25Q64.44-11.7 61.71-8.78 58.99-5.85 56.66-2.9 54.34 0.05 54.04 0.05L54.04 0.05Q53.39 0.05 52.91-0.55 52.44-1.15 52.44-1.75L52.44-1.75Q52.44-2.65 55.04-8.35L55.04-8.35 52.04-5.2Q50.94-4.1 50.66-4.1 50.39-4.1 50.39-4.42 50.39-4.75 50.79-5.15L50.79-5.15Q52.64-7 54.09-8.85 55.54-10.7 58.89-15.45L58.89-15.45Q59.44-16.2 60.44-16.2 61.44-16.2 61.44-15.25L61.44-15.25Q61.44-14.9 58.79-10.38 56.14-5.85 55.84-4.7L55.84-4.7Q57.89-6.95 61.99-10.75L61.99-10.75Q68.14-16.45 70.09-16.45L70.09-16.45Q70.69-16.45 71.19-16.1 71.69-15.75 71.69-15.33 71.69-14.9 69.74-11.55L69.74-11.55Q67.84-8.1 67.64-7.45L67.64-7.45Q73.19-12.1 73.19-12.15L73.19-12.15Q77.89-15.8 79.94-15.8L79.94-15.8Q80.54-15.8 81.06-15.43 81.59-15.05 81.59-14.55L81.59-14.55Q81.59-14.45 78.34-10.33 75.09-6.2 74.69-3.55L74.69-3.55Q74.59-2.65 75.04-2.2 75.49-1.75 76.66-1.75 77.84-1.75 80.11-3.38 82.39-5 84.74-7.75L84.74-7.75Q85.64-8.75 85.96-8.75 86.29-8.75 86.29-8.5L86.29-8.5Q86.29-8.15 85.84-7.7L85.84-7.7Q83.39-4.75 80.56-2.68 77.74-0.6 76.14-0.6ZM89.66 0.65L89.66 0.65Q89.11 0.65 88.66 0.5L88.66 0.5Q85.46-0.4 85.46-3.1L85.46-3.1Q85.46-6.6 89.86-11.2 94.26-15.8 97.76-15.8L97.76-15.8Q98.91-15.8 99.63-15.18 100.36-14.55 100.36-13.65L100.36-13.65Q100.36-10.85 96.13-8.3 91.91-5.75 89.26-5.75L89.26-5.75Q88.86-5.75 88.56-5.85L88.56-5.85Q87.81-4.5 87.81-3L87.81-3Q87.81-0.4 90.28-0.4 92.76-0.4 96.71-3.75L96.71-3.75Q99.76-6.2 101.91-8.95L101.91-8.95Q102.36-9.55 102.68-9.55 103.01-9.55 103.01-9.25 103.01-8.95 102.61-8.4L102.61-8.4Q99.91-4.85 96.11-2.1 92.31 0.65 89.66 0.65ZM99.11-13.75L99.11-13.75Q99.11-14.35 97.83-14.35 96.56-14.35 94.21-12.4L94.21-12.4Q91.06-9.8 89.31-6.95L89.31-6.95Q89.61-6.85 89.96-6.85L89.96-6.85Q91.86-6.85 95.03-8.88 98.21-10.9 99.01-13.3L99.01-13.3Q99.11-13.55 99.11-13.75ZM111.33-15.8L111.33-15.8Q112.68-15.8 112.68-14.75L112.68-14.75Q112.68-14.45 112.53-14.15L112.53-14.15Q108.03-7.9 107.13-4.7L107.13-4.7Q118.78-16.35 121.28-16.35L121.28-16.35Q121.53-16.4 121.73-16.4L121.73-16.4Q123.13-16.4 123.13-15.15L123.13-15.15Q123.13-14.9 123.03-14.65 122.93-14.4 121.03-11.95L121.03-11.95Q118.83-9.35 117.3-6.95 115.78-4.55 115.78-2.95 115.78-1.35 116.48-1.35L116.48-1.35Q118.68-1.35 124.13-7.4L124.13-7.4Q124.23-7.5 124.48-7.85L124.48-7.85Q125.23-8.75 125.38-8.75 125.53-8.75 125.53-8.25 125.53-7.75 124.83-6.95L124.83-6.95Q118.63 0.1 116.03 0.1L116.03 0.1Q113.58 0.1 113.58-2.6 113.58-5.3 115.58-8.8L115.58-8.8 118.78-14Q115.38-11.5 112.73-8.53 110.08-5.55 107.9-2.75 105.73 0.05 105.38 0.05L105.38 0.05Q104.63 0.05 104.2-0.58 103.78-1.2 103.78-2.13 103.78-3.05 104.43-4.6 105.08-6.15 106.08-8.35L106.08-8.35 103.08-5.2Q101.98-4.1 101.7-4.1 101.43-4.1 101.43-4.42 101.43-4.75 101.83-5.15L101.83-5.15Q103.68-7 105.03-8.7L105.03-8.7Q106.33-10.4 110.38-15.2L110.38-15.2Q110.83-15.8 111.33-15.8ZM139.79-16.1L139.79-16.1 146.99-16.2Q147.14-16.1 147.14-16.05L147.14-16.05Q147.14-15.6 140.92-14.8 134.69-14 134.19-13.85L134.19-13.85Q133.24-13 130.69-8.78 128.14-4.55 128.14-2.6L128.14-2.6Q128.14-0.75 130.69-0.75L130.69-0.75Q131.89-0.75 133.84-1.5 135.79-2.25 136.84-2.9L136.84-2.9Q139.64-4.65 142.84-8.05L142.84-8.05Q143.54-8.75 143.79-8.75L143.79-8.75Q143.94-8.75 143.94-8.45 143.94-8.15 143.19-7.25L143.19-7.25Q140.59-4.05 137.34-2.1L137.34-2.1Q133.44 0.3 129.89 0.3L129.89 0.3Q128.34 0.3 127.37-0.38 126.39-1.05 126.39-3.1 126.39-5.15 128.19-8.72 129.99-12.3 130.94-14.05L130.94-14.05Q130.24-13.9 129.74-13.9L129.74-13.9Q128.29-13.9 128.29-15.05L128.29-15.05Q128.29-15.9 129.49-16.25L129.49-16.25Q129.64-16.25 129.94-16.3L129.94-16.3 132.84-16.3Q133.74-17.45 134.89-18.95L134.89-18.95Q136.29-20.75 136.79-20.75 137.29-20.75 138.04-20.35 138.79-19.95 138.79-19.4 138.79-18.85 136.39-16.15L136.39-16.15Q137.69-16.1 139.79-16.1ZM155.71-1.8L154.11-0.75Q152.66 0.1 150.54 0.1 148.41 0.1 147.29-1.3 146.16-2.7 145.36-5.75L145.36-5.75Q144.46-4.85 144.11-4.85L144.11-4.85Q143.86-4.85 143.86-5.2 143.86-5.55 144.11-5.8L144.11-5.8Q145.76-7.85 149.71-11.7L149.71-11.7 156.01-17.6Q158.71-20.15 159.21-20.15L159.21-20.15Q160.81-20.15 160.81-18.95L160.81-18.95Q160.81-18.35 160.34-17.78 159.86-17.2 159.64-16.88 159.41-16.55 159.16-16.25L159.16-16.25Q158.26-14.7 157.34-9.85 156.41-5 155.91-3.1L155.91-3.1Q160.06-3.15 164.46-8.5L164.46-8.5Q164.96-9 165.21-9 165.46-9 165.46-8.68 165.46-8.35 165.01-7.8L165.01-7.8Q162.11-4.4 159.61-3.05L159.61-3.05Q158.11-2.3 155.71-1.8L155.71-1.8ZM147.36-6.3L147.36-6.3Q147.36-4.6 148.49-3.53 149.61-2.45 151.01-2.45 152.41-2.45 153.16-3L153.16-3Q154.16-3.55 155.14-7.6 156.11-11.65 156.31-14.75L156.31-14.75 156.51-16.45Q153.76-14.4 150.64-11.15 147.51-7.9 147.41-6.85L147.41-6.85Q147.36-6.55 147.36-6.3ZM203.3-0.6L203.3-0.6Q199.9-0.6 199.9-3.75L199.9-3.75Q199.9-5.55 201.5-8.68 203.1-11.8 204.85-13.95L204.85-13.95Q201.75-12.45 197.7-8.53 193.65-4.6 192.05-0.3L192.05-0.3Q191.8 0.1 191.2 0.1L191.2 0.1Q190 0.1 190-1.25L190-1.25Q190.5-4 192.25-7.55L192.25-7.55Q192.8-8.7 195.5-14.25L195.5-14.25Q191.6-11.7 188.88-8.78 186.15-5.85 183.83-2.9 181.5 0.05 181.2 0.05L181.2 0.05Q180.55 0.05 180.08-0.55 179.6-1.15 179.6-1.75L179.6-1.75Q179.6-2.65 182.2-8.35L182.2-8.35 179.2-5.2Q178.1-4.1 177.83-4.1 177.55-4.1 177.55-4.42 177.55-4.75 177.95-5.15L177.95-5.15Q179.8-7 181.25-8.85 182.7-10.7 186.05-15.45L186.05-15.45Q186.6-16.2 187.6-16.2 188.6-16.2 188.6-15.25L188.6-15.25Q188.6-14.9 185.95-10.38 183.3-5.85 183-4.7L183-4.7Q185.05-6.95 189.15-10.75L189.15-10.75Q195.3-16.45 197.25-16.45L197.25-16.45Q197.85-16.45 198.35-16.1 198.85-15.75 198.85-15.33 198.85-14.9 196.9-11.55L196.9-11.55Q195-8.1 194.8-7.45L194.8-7.45Q200.35-12.1 200.35-12.15L200.35-12.15Q205.05-15.8 207.1-15.8L207.1-15.8Q207.7-15.8 208.23-15.43 208.75-15.05 208.75-14.55L208.75-14.55Q208.75-14.45 205.5-10.33 202.25-6.2 201.85-3.55L201.85-3.55Q201.75-2.65 202.2-2.2 202.65-1.75 203.83-1.75 205-1.75 207.28-3.38 209.55-5 211.9-7.75L211.9-7.75Q212.8-8.75 213.13-8.75 213.45-8.75 213.45-8.5L213.45-8.5Q213.45-8.15 213-7.7L213-7.7Q210.55-4.75 207.73-2.68 204.9-0.6 203.3-0.6ZM230.87-14.95L230.87-14.95 231.57-15.1Q232.12-15.1 232.62-14.65 233.12-14.2 233.12-13.95 233.12-13.7 230.02-9.13 226.92-4.55 226.92-2.75L226.92-2.75Q226.92-2.6 226.97-2.45L226.97-2.45Q227.22-1.3 228.07-1.3L228.07-1.3Q230.67-1.3 237.57-9.9L237.57-9.9Q237.72-10.1 237.92-10.1 238.12-10.1 238.12-9.73 238.12-9.35 237.67-8.75L237.67-8.75Q231.27-0.2 227.92-0.2L227.92-0.2Q227.47-0.2 227.07-0.35L227.07-0.35Q224.87-1.2 224.87-3.65L224.87-3.65Q224.87-4.5 225.07-5.35L225.07-5.35 221.97-2.35Q219.02 0.25 217.69 0.25 216.37 0.25 215.17-0.6L215.17-0.6Q213.82-1.6 213.82-3.25L213.82-3.25Q213.82-6.9 218.92-11.98 224.02-17.05 228.27-17.05L228.27-17.05Q229.92-17.05 230.47-15.9L230.47-15.9Q230.62-15.5 230.72-15.23 230.82-14.95 230.87-14.95ZM215.92-2.65L215.92-2.65Q215.92-0.85 217.17-0.85L217.17-0.85Q220.07-0.85 225.07-7.2L225.07-7.2 230.37-14.5Q229.97-15.2 229.07-15.2L229.07-15.2Q226.02-15.2 220.97-10.48 215.92-5.75 215.92-2.65ZM254.59-15.15L254.59-15.15Q260.19-24.25 262.39-24.25L262.39-24.25Q262.74-24.25 263.36-24.03 263.99-23.8 263.99-23.35L263.99-23.35Q263.99-23.1 263.74-22.7L263.74-22.7Q259.74-17.8 257.79-15.35L257.79-15.35Q251.89-7.9 251.29-4.65L251.29-4.65Q251.14-3.95 251.14-3.25L251.14-3.25Q251.14-1 252.99-1L252.99-1Q256.69-1 262.64-7.85L262.64-7.85Q263.14-8.35 263.49-8.43 263.84-8.5 263.84-8.25 263.84-8 263.54-7.65L263.54-7.65Q257.74-0.7 253.24 0.1L253.24 0.1Q252.99 0.15 252.54 0.15L252.54 0.15Q250.99 0.15 250.21-0.93 249.44-2 249.44-3.25L249.44-3.25Q249.44-4.65 249.99-6.35L249.99-6.35 245.94-2.3Q243.19 0.25 241.61 0.25 240.04 0.25 238.99-0.6L238.99-0.6Q237.74-1.55 237.74-3.25L237.74-3.25Q237.74-6.9 242.84-11.98 247.94-17.05 252.19-17.05L252.19-17.05Q253.59-17.05 254.14-16.3L254.14-16.3Q254.34-16.05 254.59-15.15ZM239.84-2.65L239.84-2.65Q239.84-0.85 241.09-0.85L241.09-0.85Q243.24-0.85 248.24-6.75L248.24-6.75Q249.14-7.8 254.24-14.6L254.24-14.6Q253.89-15.2 253.04-15.2L253.04-15.2Q249.94-15.2 244.89-10.48 239.84-5.75 239.84-2.65ZM267.41 0.65L267.41 0.65Q266.86 0.65 266.41 0.5L266.41 0.5Q263.21-0.4 263.21-3.1L263.21-3.1Q263.21-6.6 267.61-11.2 272.01-15.8 275.51-15.8L275.51-15.8Q276.66-15.8 277.38-15.18 278.11-14.55 278.11-13.65L278.11-13.65Q278.11-10.85 273.88-8.3 269.66-5.75 267.01-5.75L267.01-5.75Q266.61-5.75 266.31-5.85L266.31-5.85Q265.56-4.5 265.56-3L265.56-3Q265.56-0.4 268.03-0.4 270.51-0.4 274.46-3.75L274.46-3.75Q277.51-6.2 279.66-8.95L279.66-8.95Q280.11-9.55 280.43-9.55 280.76-9.55 280.76-9.25 280.76-8.95 280.36-8.4L280.36-8.4Q277.66-4.85 273.86-2.1 270.06 0.65 267.41 0.65ZM276.86-13.75L276.86-13.75Q276.86-14.35 275.58-14.35 274.31-14.35 271.96-12.4L271.96-12.4Q268.81-9.8 267.06-6.95L267.06-6.95Q267.36-6.85 267.71-6.85L267.71-6.85Q269.61-6.85 272.78-8.88 275.96-10.9 276.76-13.3L276.76-13.3Q276.86-13.55 276.86-13.75Z" opacity="1" transform="matrix(1,0,0,1,0,0)" fill="#445eca" class="slogan-text-1" data-fill-palette-color="secondary" id="text-1"></path></svg></g></svg></g></svg></g></svg></g><g></g></svg></g></svg></g></svg></g><defs></defs></svg><rect width="320" height="360" fill="none" stroke="none" visibility="hidden"></rect></g></svg></g></svg>